<svg width="362" height="341" viewBox="0 0 362 341" fill="none" xmlns="http://www.w3.org/2000/svg">
<path d="M167.509 168.361C170.941 170.279 175.017 170.752 178.829 169.7C182.641 168.646 185.876 166.153 187.835 162.745C189.794 159.338 190.321 155.288 189.314 151.464C188.307 147.64 185.847 144.355 182.463 142.354C182.463 142.354 182.463 142.354 182.463 142.354C182.226 142.211 181.987 142.061 181.745 141.903L182.188 142.191C182.03 142.078 181.83 141.928 181.577 141.733L182.11 142.148C181.854 141.932 181.647 141.748 181.495 141.604L181.82 141.903C181.656 141.739 181.446 141.523 181.187 141.248L181.602 141.692C181.437 141.499 181.277 141.3 181.121 141.096L181.231 141.235C181.14 141.109 181.006 140.917 180.848 140.676L181.061 140.994C180.905 140.742 180.752 140.482 180.604 140.215L180.848 140.649C180.657 140.282 180.517 139.994 180.409 139.754L180.653 140.287C180.456 139.816 180.311 139.45 180.225 139.209L180.29 139.381C180.274 139.32 180.181 139.026 180.025 138.495L180.178 139.021C180.066 138.58 179.974 138.184 179.894 137.804L179.994 138.271C179.917 137.845 179.861 137.472 179.824 137.169L179.865 137.468C179.811 136.98 179.789 136.662 179.787 136.49C179.783 136.314 179.781 135.958 179.789 135.447L179.788 135.676C179.798 135.461 179.824 135.086 179.872 134.55L179.854 134.773C179.884 134.521 179.943 134.107 180.03 133.567L179.997 133.781C180.047 133.518 180.139 133.088 180.273 132.505L180.18 132.912C180.285 132.514 180.41 132.091 180.561 131.618L180.502 131.81C180.597 131.533 180.764 131.087 181.002 130.473L180.835 130.902C181.049 130.4 181.272 129.902 181.492 129.441L181.293 129.861C181.588 129.281 181.817 128.864 181.968 128.617L181.931 128.681C182.183 128.261 182.476 127.797 182.807 127.295L182.537 127.705C182.936 127.136 183.244 126.719 183.461 126.453L183.368 126.573C183.705 126.157 184.114 125.675 184.586 125.129L184.142 125.634C184.649 125.096 185.076 124.658 185.424 124.325L185.239 124.507C185.668 124.106 186.138 123.687 186.659 123.236L186.27 123.571C186.75 123.184 187.275 122.78 187.835 122.363L187.432 122.662C188.097 122.197 188.659 121.815 189.13 121.516L188.8 121.729C189.371 121.384 189.914 121.074 190.429 120.799L190.222 120.912C190.893 120.564 191.457 120.288 191.92 120.083L191.65 120.206C191.893 120.102 192.122 120.004 192.337 119.914C192.797 119.722 193.195 119.564 193.537 119.438L193.334 119.516C193.99 119.282 194.633 119.071 195.276 118.878L194.927 118.985C195.62 118.793 196.385 118.598 197.215 118.396L196.675 118.525C197.402 118.377 198.136 118.243 198.877 118.126L198.538 118.181C199.315 118.074 200.074 117.986 200.836 117.914L200.523 117.946C201.203 117.896 201.949 117.863 202.747 117.843L202.429 117.853C203.244 117.849 204.014 117.863 204.731 117.896L204.429 117.884C205.163 117.932 205.999 118.007 206.935 118.101L206.347 118.039C207.299 118.169 208.148 118.297 208.899 118.432L208.461 118.355C209.437 118.553 210.251 118.732 210.897 118.899L210.617 118.83C211.485 119.067 212.316 119.311 213.122 119.568L212.771 119.457C213.578 119.735 214.406 120.041 215.235 120.366L214.858 120.219C215.696 120.572 216.501 120.931 217.283 121.303L217.049 121.194C217.767 121.55 218.547 121.965 219.4 122.437L219.075 122.258C219.856 122.715 220.627 123.191 221.404 123.694L221.078 123.484C221.853 124.013 222.636 124.57 223.417 125.149L223.105 124.919C223.869 125.514 224.583 126.096 225.239 126.664L225.024 126.481C225.765 127.142 226.482 127.808 227.163 128.47L226.886 128.202C227.565 128.895 228.229 129.603 228.876 130.326L228.688 130.119C229.295 130.822 229.928 131.595 230.588 132.429L230.357 132.139C230.954 132.931 231.538 133.744 232.122 134.595L231.874 134.235C232.464 135.143 233.036 136.059 233.592 136.983L233.373 136.621C233.856 137.475 234.352 138.409 234.872 139.422L234.689 139.066C235.12 139.964 235.563 140.948 236.024 142.012L235.865 141.645C236.246 142.59 236.619 143.587 236.986 144.632L236.892 144.37C237.222 145.362 237.536 146.393 237.832 147.448L237.707 147.004C238 148.164 238.26 149.267 238.482 150.324L238.425 150.063C238.621 151.078 238.801 152.18 238.976 153.366L238.92 152.989C239.059 154.115 239.168 155.207 239.243 156.265L239.223 156.023C239.289 157.171 239.33 158.334 239.346 159.499L239.34 159.138C239.331 160.315 239.297 161.456 239.233 162.563L239.245 162.325C239.165 163.442 239.051 164.601 238.908 165.806L238.948 165.456C238.78 166.666 238.586 167.873 238.367 169.078L238.449 168.624C238.181 169.912 237.911 171.115 237.628 172.228L237.731 171.818C237.376 173.091 237.02 174.293 236.651 175.432L236.762 175.084C236.342 176.297 235.912 177.459 235.469 178.566L235.586 178.269C235.099 179.423 234.577 180.589 234.018 181.778L234.148 181.498C233.615 182.577 233.029 183.686 232.395 184.828L232.564 184.521C231.918 185.63 231.245 186.727 230.538 187.824L230.704 187.564C229.992 188.626 229.244 189.685 228.468 190.734L228.612 190.536C227.848 191.536 227.035 192.543 226.181 193.554L226.435 193.251C225.515 194.291 224.589 195.3 223.656 196.273L223.869 196.048C222.983 196.938 221.994 197.878 220.916 198.874L221.308 198.512C220.19 199.485 219.115 200.393 218.065 201.235L218.367 200.991C217.25 201.848 216.113 202.685 214.954 203.502L215.341 203.229C214.069 204.077 212.874 204.85 211.747 205.532L212.075 205.331C210.786 206.078 209.525 206.779 208.285 207.43L208.62 207.252C207.321 207.9 206.007 208.521 204.68 209.115L205.147 208.906C203.701 209.507 202.318 210.057 200.992 210.545L201.336 210.416C199.901 210.914 198.512 211.364 197.156 211.765L197.441 211.679C196.002 212.079 194.56 212.447 193.126 212.777L193.541 212.68C192.034 212.992 190.543 213.269 189.071 213.508L189.488 213.439C187.93 213.657 186.401 213.842 184.9 213.989L185.315 213.947C183.725 214.067 182.199 214.154 180.734 214.197L181.041 214.186C179.49 214.207 177.94 214.194 176.39 214.146L176.792 214.157C175.221 214.075 173.648 213.959 172.081 213.809L172.379 213.836C170.868 213.666 169.326 213.451 167.755 213.198L168.144 213.259C166.563 212.97 164.991 212.648 163.434 212.294L163.813 212.378C162.231 211.983 160.654 211.555 159.082 211.093L159.499 211.215C157.927 210.713 156.362 210.178 154.803 209.612L155.213 209.76C153.733 209.181 152.195 208.536 150.599 207.838L150.999 208.012C149.483 207.306 148.006 206.579 146.569 205.826L146.878 205.986C145.393 205.174 143.935 204.336 142.509 203.474L142.837 203.67C141.395 202.759 139.995 201.831 138.625 200.875L138.911 201.072C137.531 200.072 136.173 199.04 134.835 197.977L135.163 198.237C133.828 197.128 132.503 195.979 131.181 194.792L131.541 195.114C130.265 193.908 129.016 192.677 127.793 191.42L128.075 191.707C126.867 190.413 125.686 189.093 124.532 187.749L124.834 188.099C123.702 186.714 122.597 185.305 121.521 183.872L121.76 184.188C120.735 182.763 119.73 181.293 118.739 179.78L118.954 180.106C117.983 178.555 117.069 177.027 116.225 175.521L116.351 175.742C115.519 174.212 114.702 172.61 113.89 170.939L114.073 171.312C113.29 169.61 112.55 167.915 111.864 166.239L112.036 166.654C111.369 164.913 110.731 163.141 110.118 161.335L110.268 161.776C109.706 159.981 109.19 158.201 108.724 156.435L108.806 156.738C108.36 154.932 107.958 153.124 107.602 151.31L107.68 151.697C107.342 149.786 107.046 147.898 106.797 146.033L106.849 146.404C106.633 144.521 106.462 142.635 106.335 140.744L106.361 141.105C106.266 139.192 106.216 137.275 106.208 135.355L106.211 135.717C106.238 133.783 106.308 131.846 106.421 129.912L106.396 130.357C106.558 128.347 106.752 126.372 106.987 124.437L106.924 124.959C107.22 122.945 107.547 120.968 107.911 119.035L107.851 119.366C108.237 117.489 108.688 115.559 109.19 113.565L109.064 114.069C109.618 112.08 110.201 110.13 110.818 108.22L110.68 108.649C111.343 106.74 112.054 104.827 112.807 102.913L112.626 103.375C113.432 101.461 114.265 99.5882 115.128 97.76L114.942 98.1571C115.886 96.2601 116.842 94.4242 117.814 92.6611L117.608 93.0377C118.626 91.2795 119.706 89.5126 120.842 87.7319L120.658 88.0234C121.745 86.3819 122.949 84.6723 124.247 82.8783L123.949 83.2912C125.203 81.6474 126.511 80.0139 127.868 78.3909L127.625 78.6844C129.021 77.073 130.425 75.5216 131.841 74.0366L131.585 74.3081C133.098 72.7747 134.625 71.2905 136.174 69.8515L135.862 70.1437C137.451 68.7258 139.088 67.3311 140.766 65.9596L140.44 66.228C142.13 64.9015 143.852 63.6125 145.605 62.3614L145.311 62.5733C147.086 61.3506 148.894 60.1669 150.738 59.0172L150.373 59.2462C152.255 58.1245 154.169 57.0391 156.105 55.9949L155.694 56.2178C157.67 55.2068 159.663 54.2399 161.682 53.3123L161.335 53.4739C163.311 52.609 165.369 51.77 167.501 50.9447L167.042 51.1234C169.16 50.3587 171.284 49.6425 173.418 48.9749L173.005 49.1059C175.165 48.4769 177.352 47.892 179.558 47.3503L179.136 47.4554C181.355 46.9569 183.577 46.5083 185.789 46.1147L185.362 46.1924C187.585 45.8421 189.879 45.5348 192.237 45.2568L191.631 45.3278C194.017 45.1125 196.328 44.9431 198.556 44.8386L198.213 44.8569C200.452 44.7864 202.786 44.7723 205.201 44.7948L204.611 44.7893C206.988 44.8747 209.332 45.0045 211.652 45.1848L211.232 45.154C213.504 45.374 215.855 45.6611 218.285 45.9949L217.707 45.9156C220.082 46.3053 222.425 46.7365 224.739 47.2147L224.238 47.1125C226.612 47.6581 228.945 48.2404 231.233 48.8655L230.743 48.7331C233.069 49.4239 235.367 50.1567 237.646 50.9361L237.145 50.7659C239.405 51.5979 241.666 52.4861 243.922 53.4238L243.535 53.265C245.721 54.2219 247.902 55.2397 250.087 56.3162L249.685 56.12C251.819 57.2242 253.959 58.3966 256.11 59.6294L255.661 59.3738C257.778 60.6511 259.88 61.9794 261.97 63.3565L261.526 63.0656C263.556 64.4712 265.566 65.9284 267.551 67.4303L267.219 67.1815C269.127 68.6802 271.027 70.2521 272.927 71.889L272.565 71.5796C274.418 73.2442 276.25 74.9643 278.06 76.7334L277.723 76.4062C279.481 78.1959 281.202 80.0261 282.877 81.8906L282.568 81.549C284.22 83.4609 285.83 85.41 287.402 87.3994L287.114 87.0374C288.652 89.0632 290.144 91.1227 291.59 93.2145L291.328 92.8384C292.743 94.9713 294.121 97.1488 295.461 99.3646L295.19 98.9179C296.476 101.154 297.716 103.421 298.907 105.716L298.67 105.261C299.84 107.635 300.935 109.97 301.938 112.267L301.789 111.933C302.792 114.325 303.741 116.741 304.636 119.178L304.473 118.738C305.333 121.229 306.137 123.727 306.883 126.238L306.734 125.743C307.435 128.295 308.082 130.862 308.674 133.442L308.554 132.923C309.109 135.601 309.6 138.205 310.006 140.737L309.936 140.314C310.319 142.984 310.644 145.635 310.905 148.265L310.853 147.765C311.062 150.418 311.214 153.133 311.323 155.904L311.297 155.247C311.334 158.04 311.323 160.777 311.251 163.462L311.265 162.893C311.129 165.643 310.941 168.364 310.694 171.059L310.737 170.568C310.435 173.274 310.071 175.999 309.65 178.733L309.736 178.165C309.257 180.869 308.715 183.582 308.118 186.289L308.222 185.807C307.576 188.487 306.872 191.146 306.111 193.773L306.246 193.301C305.425 195.945 304.539 198.59 303.595 201.231L303.756 200.774C302.78 203.349 301.735 205.915 300.626 208.481L300.839 207.984C299.649 210.586 298.418 213.149 297.144 215.664L297.421 215.116C296.069 217.636 294.672 220.12 293.23 222.564L293.503 222.098C292.017 224.5 290.476 226.87 288.876 229.218L289.164 228.792C287.5 231.133 285.786 233.442 284.024 235.718L284.369 235.27C282.576 237.485 280.712 239.683 278.791 241.862L279.166 241.434C277.193 243.577 275.184 245.672 273.144 247.709L273.587 247.266C271.459 249.293 269.304 251.267 267.122 253.181L267.462 252.88C265.293 254.717 263.031 256.537 260.686 258.352L261.142 257.997C258.78 259.743 256.378 261.441 253.939 263.09L254.418 262.765C251.908 264.384 249.403 265.931 246.903 267.393L247.282 267.169C244.764 268.586 242.164 269.965 239.496 271.312L239.944 271.084C237.279 272.367 234.576 273.594 231.832 274.771L232.422 274.517C229.595 275.651 226.768 276.723 223.933 277.732L224.481 277.535C221.597 278.492 218.715 279.385 215.838 280.208L216.42 280.04C213.441 280.821 210.497 281.534 207.589 282.164L208.081 282.055C205.105 282.644 202.127 283.165 199.157 283.614L199.639 283.539C196.666 283.934 193.64 284.264 190.578 284.535L191.148 284.483C188.065 284.691 184.977 284.837 181.886 284.92L182.526 284.902C179.422 284.914 176.311 284.863 173.208 284.75L173.845 284.772C170.719 284.586 167.623 284.34 164.567 284.026L165.121 284.081C162.005 283.7 158.919 283.257 155.855 282.749L156.425 282.842C153.367 282.27 150.297 281.626 147.22 280.915L147.863 281.062C144.725 280.262 141.686 279.429 138.755 278.545L139.24 278.689C136.251 277.73 133.27 276.7 130.308 275.605L130.897 275.821C127.874 274.629 124.927 273.405 122.064 272.135L122.621 272.38C119.712 271.016 116.837 269.596 114.004 268.123L114.605 268.434C111.746 266.862 108.938 265.247 106.182 263.586L106.734 263.916C103.966 262.163 101.292 260.397 98.7247 258.604L99.1609 258.906C96.5158 256.988 93.9268 255.031 91.3959 253.03L91.9344 253.454C90.9634 252.649 90.0025 251.841 89.0519 251.031C87.4949 249.703 85.9656 248.366 84.4644 247.018L84.9684 247.469C82.5893 245.232 80.2388 242.926 77.9207 240.563L78.3959 241.046C76.0961 238.592 73.8903 236.152 71.7915 233.714L72.1993 234.184C70.0726 231.608 68.0318 229.034 66.0902 226.458L66.3905 226.852C64.4602 224.2 62.592 221.506 60.787 218.771L61.0698 219.194C59.3195 216.44 57.6066 213.597 55.9242 210.678C51.9418 203.79 45.3986 198.802 37.6863 196.841C29.9767 194.879 21.7296 196.105 14.8072 200.219C7.88468 204.334 2.86764 210.994 0.907602 218.704C-1.05521 226.415 0.199652 234.547 4.34826 241.337C4.34826 241.337 4.34826 241.337 4.34826 241.337C6.49905 244.867 8.74273 248.399 11.1026 251.921C11.1595 252.005 11.3272 252.261 11.3855 252.344C13.7797 255.788 16.253 259.176 18.802 262.503C18.8623 262.582 19.0406 262.82 19.1023 262.897C21.7149 266.193 24.3733 269.379 27.0532 272.471C27.1349 272.565 27.3773 272.849 27.461 272.941C30.2677 276.046 33.1033 279.029 35.9366 281.909C36.0317 282.005 36.3145 282.297 36.4118 282.392C39.3255 285.221 42.3057 288.007 45.3641 290.746C45.4649 290.836 45.7651 291.109 45.868 291.197C47.7969 292.846 49.7374 294.46 51.6847 296.041C52.8736 297.006 54.0651 297.96 55.2581 298.901C55.3658 298.986 55.6868 299.243 55.7965 299.325C59.0532 301.774 62.3488 304.141 65.6715 306.429C65.7589 306.489 66.0192 306.672 66.1077 306.73C69.5543 309.014 72.9986 311.167 76.4187 313.218C76.5291 313.285 76.8584 313.486 76.9703 313.549C80.4629 315.541 83.9789 317.449 87.5077 319.281C87.628 319.343 87.9872 319.533 88.1089 319.592C91.7036 321.352 95.3251 323.032 98.971 324.635C99.0825 324.684 99.4155 324.833 99.528 324.88C103.26 326.428 106.974 327.863 110.656 329.213C110.774 329.257 111.126 329.389 111.245 329.429C115 330.714 118.787 331.921 122.613 333.046C122.71 333.075 123 333.163 123.097 333.19C126.991 334.261 130.826 335.208 134.59 336.073C134.718 336.102 135.103 336.193 135.232 336.22C139.06 337.006 142.924 337.721 146.827 338.353C146.941 338.371 147.283 338.43 147.397 338.446C151.286 338.994 155.176 339.454 159.051 339.834C159.162 339.844 159.494 339.88 159.605 339.888C163.524 340.194 167.418 340.408 171.288 340.543C171.415 340.548 171.797 340.564 171.925 340.565C175.78 340.612 179.631 340.582 183.487 340.473C183.615 340.47 183.999 340.462 184.127 340.455C187.963 340.259 191.797 339.985 195.624 339.632C195.738 339.622 196.081 339.593 196.195 339.58C199.989 339.151 203.807 338.643 207.653 338.036C207.75 338.021 208.039 337.978 208.135 337.961C211.94 337.29 215.71 336.535 219.451 335.7C219.549 335.678 219.845 335.615 219.943 335.591C223.692 334.682 227.367 333.695 230.973 332.655C231.089 332.621 231.439 332.523 231.554 332.487C235.181 331.355 238.76 330.148 242.291 328.88C242.401 328.841 242.731 328.725 242.84 328.683C246.347 327.339 249.813 325.926 253.231 324.458C253.349 324.407 253.704 324.258 253.82 324.204C257.225 322.646 260.611 321.009 263.968 319.291C264.058 319.245 264.328 319.11 264.416 319.062C267.684 317.312 270.959 315.474 274.23 313.526C274.306 313.481 274.534 313.348 274.609 313.302C277.809 311.324 280.92 309.294 283.955 307.23C284.05 307.165 284.339 306.972 284.433 306.905C287.436 304.767 290.396 302.564 293.31 300.298C293.402 300.227 293.677 300.016 293.767 299.943C296.583 297.652 299.406 295.27 302.21 292.775C302.278 292.715 302.483 292.536 302.55 292.474C305.241 289.995 307.865 287.471 310.426 284.909C310.514 284.821 310.782 284.557 310.868 284.466C313.381 281.831 315.824 279.155 318.206 276.441C318.281 276.355 318.508 276.1 318.581 276.013C320.889 273.264 323.159 270.452 325.383 267.565C325.452 267.475 325.661 267.208 325.728 267.117C327.853 264.231 329.921 261.299 331.928 258.323C331.986 258.238 332.161 257.984 332.217 257.897C334.162 254.887 336.05 251.824 337.869 248.717C337.924 248.624 338.09 248.346 338.142 248.251C339.875 245.145 341.537 242.013 343.132 238.859C343.187 238.75 343.356 238.422 343.408 238.311C344.931 235.114 346.376 231.907 347.753 228.691C347.796 228.591 347.926 228.294 347.967 228.193C349.289 224.919 350.551 221.592 351.736 218.221C351.768 218.13 351.867 217.856 351.897 217.764C352.991 214.453 354.024 211.104 354.987 207.713C355.014 207.619 355.097 207.337 355.121 207.242C356.018 203.838 356.832 200.427 357.57 197.008C357.591 196.911 357.656 196.622 357.674 196.526C358.336 193.137 358.932 189.729 359.456 186.29C359.473 186.176 359.528 185.836 359.542 185.722C359.98 182.325 360.355 178.903 360.656 175.446C360.664 175.348 360.692 175.054 360.699 174.956C360.93 171.513 361.083 168.085 361.168 164.681C361.17 164.568 361.182 164.227 361.182 164.113C361.19 160.671 361.119 157.28 360.995 153.948C360.99 153.816 360.978 153.422 360.969 153.291C360.759 149.981 360.491 146.62 360.139 143.21C360.129 143.11 360.1 142.81 360.088 142.71C359.669 139.323 359.174 135.973 358.617 132.661C358.602 132.577 358.562 132.323 358.546 132.238C357.914 128.836 357.204 125.535 356.459 122.332C356.434 122.228 356.365 121.916 356.338 121.813C355.513 118.582 354.619 115.367 353.658 112.172C353.628 112.073 353.541 111.776 353.509 111.677C352.48 108.5 351.381 105.351 350.22 102.237C350.187 102.149 350.091 101.884 350.057 101.797C348.835 98.7047 347.544 95.6383 346.183 92.6024C346.153 92.5356 346.066 92.3342 346.035 92.2679C344.606 89.204 343.125 86.2441 341.623 83.3735C341.575 83.2827 341.435 83.0089 341.385 82.919C339.807 80.0528 338.166 77.2174 336.463 74.417C336.408 74.3277 336.248 74.0584 336.191 73.9703C334.453 71.2478 332.652 68.5485 330.784 65.8765C330.732 65.8014 330.576 65.5745 330.522 65.5004C328.612 62.8765 326.643 60.2944 324.619 57.7575C324.561 57.6852 324.389 57.4667 324.33 57.3955C322.272 54.9173 320.155 52.4775 317.985 50.0859C317.922 50.0177 317.738 49.8113 317.675 49.7443C315.47 47.4077 313.215 45.1233 310.91 42.8887C310.842 42.8234 310.642 42.6255 310.573 42.5615C308.263 40.4107 305.896 38.2927 303.467 36.2154C303.395 36.1536 303.18 35.9662 303.106 35.9059C300.677 33.9129 298.176 31.9424 295.593 30.0134C295.527 29.9638 295.329 29.813 295.261 29.7646C292.721 27.9376 290.138 26.1584 287.506 24.4293C287.417 24.3712 287.153 24.1945 287.063 24.1384C284.444 22.5026 281.78 20.9068 279.071 19.3611C278.981 19.3101 278.714 19.1545 278.623 19.1055C275.922 17.6429 273.158 16.2129 270.328 14.8349C270.247 14.7958 270.007 14.6762 269.925 14.6387C267.128 13.3436 264.276 12.0951 261.377 10.9099C261.3 10.8784 261.069 10.7812 260.991 10.7511C258.153 9.65157 255.281 8.60182 252.367 7.60902C252.267 7.57502 251.967 7.47052 251.866 7.43884C248.965 6.5246 246.048 5.67224 243.129 4.88182C243.031 4.85542 242.738 4.77364 242.639 4.74942C239.681 4.01802 236.738 3.36048 233.814 2.76242C233.714 2.74205 233.414 2.67835 233.314 2.66024C230.34 2.12086 227.374 1.65014 224.425 1.23935C224.31 1.22338 223.963 1.17303 223.847 1.16005C220.968 0.835253 218 0.541918 214.94 0.320883C214.856 0.314955 214.605 0.2945 214.521 0.29014C211.533 0.131035 208.562 0.0400143 205.621 0.00562477C205.503 0.00437737 205.149 -0.00177193 205.031 8.96454e-05C202.164 0.0427856 199.217 0.127996 196.18 0.298031C196.111 0.301985 195.905 0.311316 195.837 0.316324C192.822 0.53207 189.899 0.822012 187.061 1.14713C186.94 1.16113 186.576 1.20084 186.456 1.21816C183.647 1.61848 180.784 2.07011 177.87 2.60248C177.785 2.61822 177.528 2.66281 177.443 2.68021C174.565 3.26492 171.719 3.91292 168.896 4.6195C168.812 4.64071 168.559 4.70178 168.475 4.72466C165.699 5.47834 162.93 6.29125 160.167 7.16906C160.085 7.19543 159.836 7.272 159.754 7.29999C157.026 8.2268 154.322 9.21263 151.651 10.2515C151.559 10.2873 151.283 10.3923 151.192 10.4302C148.61 11.5023 145.987 12.6433 143.338 13.881C143.268 13.9136 143.059 14.0089 142.99 14.0426C140.449 15.2857 137.927 16.5857 135.438 17.9371C135.356 17.9818 135.109 18.1135 135.028 18.16C132.583 19.5561 130.169 21.0037 127.779 22.5087C127.706 22.5547 127.487 22.6903 127.415 22.7377C125.07 24.2809 122.748 25.883 120.461 27.5417C120.403 27.5842 120.226 27.7099 120.168 27.7535C117.932 29.4333 115.733 31.1649 113.572 32.9469C113.507 33.0008 113.311 33.1602 113.247 33.2153C111.163 35.005 109.102 36.8481 107.071 38.7512C107.008 38.8098 106.82 38.9836 106.758 39.0434C104.779 40.974 102.854 42.9406 100.987 44.9269C100.936 44.9813 100.781 45.143 100.731 45.1983C98.8524 47.2677 97.0554 49.3569 95.3279 51.4505C95.2795 51.5094 95.1323 51.6843 95.0849 51.744C93.4055 53.856 91.7552 56.0202 90.1436 58.2438C90.0839 58.3264 89.903 58.5726 89.8454 58.6567C88.3909 60.7726 86.89 63.0084 85.3944 65.3915C85.3579 65.4499 85.2462 65.624 85.2107 65.683C83.8484 67.9384 82.5065 70.2548 81.204 72.6372C81.1629 72.7126 81.0375 72.9376 80.998 73.0138C79.7516 75.4097 78.59 77.7869 77.4902 80.1378C77.4531 80.2173 77.3397 80.4547 77.3043 80.535C76.228 82.966 75.2188 85.3973 74.2667 87.8196C74.2305 87.912 74.1198 88.1883 74.0858 88.2815C73.198 90.7098 72.3511 93.1693 71.552 95.6657C71.5246 95.7517 71.4401 96.0088 71.4146 96.0954C70.6735 98.598 69.9953 101.091 69.3689 103.566C69.3436 103.667 69.2652 103.969 69.2424 104.07C68.6863 106.529 68.1544 109.07 67.6818 111.689C67.6699 111.755 67.6321 111.954 67.6213 112.02C67.2059 114.565 66.8535 117.084 66.5486 119.576C66.536 119.68 66.4958 119.993 66.4859 120.098C66.2399 122.648 66.055 125.167 65.916 127.658C65.9111 127.747 65.8941 128.014 65.8912 128.103C65.8049 130.639 65.7747 133.177 65.8015 135.717C65.8023 135.79 65.8025 136.007 65.8047 136.08C65.8766 138.603 66.0051 141.127 66.1916 143.65C66.197 143.722 66.211 143.939 66.2178 144.011C66.4482 146.516 66.7372 149.019 67.0839 151.511C67.0944 151.585 67.1233 151.808 67.1351 151.882C67.5259 154.352 67.9697 156.784 68.4528 159.178C68.4685 159.255 68.5133 159.488 68.5306 159.565C69.0718 162.001 69.6721 164.421 70.3264 166.816C70.343 166.877 70.3907 167.059 70.4083 167.12C71.0996 169.503 71.8424 171.842 72.624 174.139C72.6541 174.227 72.7423 174.493 72.7745 174.58C73.5921 176.809 74.4574 179.046 75.3769 181.281C75.4112 181.364 75.512 181.614 75.5482 181.696C76.5241 183.924 77.5371 186.094 78.5793 188.223C78.616 188.297 78.7238 188.522 78.762 188.596C79.8417 190.688 80.988 192.813 82.2211 194.952C82.2466 194.997 82.3214 195.13 82.3476 195.174C83.5998 197.282 84.8832 199.31 86.1783 201.269C86.2214 201.334 86.3488 201.531 86.3932 201.595C87.7161 203.512 89.0936 205.427 90.5323 207.327C90.5802 207.39 90.722 207.58 90.7712 207.642C92.2092 209.462 93.6853 211.254 95.1984 213.016C95.2587 213.086 95.438 213.297 95.5 213.366C97.044 215.079 98.6238 216.76 100.238 218.408C100.294 218.465 100.462 218.639 100.519 218.695C102.157 220.299 103.829 221.868 105.532 223.401C105.604 223.465 105.818 223.66 105.891 223.723C107.587 225.174 109.326 226.609 111.109 228.018C111.175 228.07 111.371 228.227 111.438 228.278C113.247 229.645 115.089 230.974 116.962 232.263C117.019 232.302 117.189 232.422 117.247 232.46C119.141 233.713 121.058 234.916 122.976 236.065C123.041 236.104 123.237 236.223 123.303 236.261C125.249 237.373 127.206 238.434 129.174 239.449C129.236 239.481 129.421 239.578 129.484 239.609C131.506 240.606 133.533 241.541 135.553 242.423C135.633 242.457 135.873 242.564 135.953 242.597C137.897 243.391 139.922 244.187 142.039 244.955C142.121 244.985 142.367 245.076 142.45 245.103C144.487 245.788 146.542 246.435 148.613 247.04C148.697 247.065 148.946 247.139 149.03 247.162C151.099 247.715 153.183 248.227 155.279 248.696C155.355 248.713 155.582 248.766 155.658 248.781C157.759 249.206 159.862 249.583 161.968 249.916C162.046 249.928 162.28 249.966 162.358 249.977C164.456 250.262 166.594 250.508 168.773 250.699C168.833 250.704 169.012 250.722 169.071 250.726C171.172 250.875 173.274 250.979 175.381 251.038C175.461 251.04 175.702 251.048 175.782 251.049C177.873 251.061 179.963 251.028 182.051 250.949C182.113 250.946 182.297 250.941 182.358 250.938C184.499 250.821 186.573 250.649 188.578 250.448C188.66 250.44 188.909 250.417 188.992 250.406C191.041 250.154 193.052 249.86 195.025 249.535C195.108 249.522 195.358 249.482 195.441 249.467C197.458 249.088 199.439 248.667 201.392 248.214C201.474 248.195 201.724 248.139 201.806 248.118C203.779 247.611 205.724 247.064 207.651 246.476C207.708 246.459 207.88 246.408 207.937 246.39C209.9 245.757 211.802 245.085 213.636 244.399C213.705 244.373 213.912 244.297 213.98 244.27C215.869 243.521 217.668 242.75 219.385 241.989C219.479 241.947 219.76 241.824 219.853 241.779C221.616 240.938 223.363 240.059 225.093 239.143C225.16 239.107 225.362 239.002 225.428 238.965C227.15 238.006 228.812 237.026 230.417 236.044C230.483 236.003 230.68 235.885 230.745 235.843C232.449 234.751 234.03 233.667 235.512 232.626C235.589 232.572 235.822 232.41 235.898 232.353C237.42 231.224 238.924 230.061 240.406 228.864C240.466 228.815 240.648 228.67 240.707 228.62C242.182 227.375 243.58 226.132 244.904 224.923C244.983 224.85 245.22 224.635 245.297 224.561C246.568 223.327 247.9 222.007 249.263 220.567C249.306 220.522 249.435 220.388 249.476 220.342C250.733 218.966 251.944 217.578 253.117 216.184C253.168 216.124 253.322 215.943 253.372 215.881C254.531 214.44 255.677 212.949 256.8 211.399C256.829 211.36 256.917 211.242 256.945 211.201C258.002 209.698 259.03 208.165 260.029 206.591C260.061 206.539 260.162 206.384 260.194 206.331C261.134 204.79 262.049 203.214 262.928 201.614C262.962 201.553 263.065 201.369 263.097 201.307C263.92 199.736 264.736 198.1 265.525 196.397C265.55 196.341 265.63 196.173 265.654 196.117C266.351 194.537 267.034 192.911 267.687 191.246C267.71 191.187 267.782 191.009 267.804 190.949C268.436 189.248 269.006 187.573 269.531 185.93C269.553 185.861 269.621 185.653 269.641 185.583C270.149 183.873 270.596 182.205 271.002 180.597C271.022 180.515 271.086 180.27 271.105 180.187C271.501 178.441 271.83 176.767 272.123 175.171C272.14 175.08 272.191 174.808 272.205 174.717C272.465 173.051 272.692 171.377 272.884 169.698C272.892 169.629 272.918 169.419 272.924 169.349C273.079 167.693 273.207 165.985 273.288 164.23C273.29 164.182 273.298 164.04 273.299 163.992C273.355 162.261 273.362 160.56 273.333 158.897C273.331 158.825 273.329 158.608 273.326 158.535C273.263 156.891 273.165 155.247 273.029 153.591C273.025 153.543 273.015 153.398 273.01 153.35C272.846 151.64 272.635 149.972 272.393 148.346C272.381 148.271 272.349 148.044 272.336 147.969C272.073 146.446 271.773 144.844 271.407 143.172C271.396 143.119 271.363 142.962 271.351 142.91C270.975 141.321 270.573 139.792 270.165 138.331C270.141 138.242 270.067 137.975 270.04 137.887C269.575 136.377 269.073 134.859 268.52 133.325C268.501 133.273 268.446 133.115 268.426 133.063C267.881 131.627 267.293 130.16 266.648 128.67C266.616 128.597 266.522 128.376 266.488 128.303C265.879 126.987 265.219 125.605 264.484 124.169C264.447 124.097 264.339 123.883 264.3 123.813C263.609 122.542 262.863 121.211 262.039 119.834C261.995 119.762 261.866 119.543 261.82 119.471C261.034 118.232 260.226 117.008 259.398 115.8C259.349 115.728 259.202 115.51 259.15 115.44C258.285 114.245 257.378 113.043 256.435 111.856C256.389 111.798 256.252 111.623 256.205 111.566C255.296 110.475 254.33 109.347 253.284 108.196C253.247 108.155 253.135 108.03 253.097 107.989C252.085 106.913 251.047 105.86 249.987 104.833C249.931 104.779 249.766 104.617 249.71 104.565C248.639 103.575 247.566 102.629 246.488 101.714C246.445 101.678 246.317 101.567 246.274 101.531C245.103 100.57 243.945 99.6773 242.807 98.8356C242.745 98.7896 242.559 98.6503 242.495 98.6058C241.369 97.8139 240.219 97.0358 239.034 96.2705C238.969 96.2287 238.775 96.1016 238.709 96.0614C237.519 95.3327 236.297 94.6199 235.058 93.9368C234.993 93.9011 234.799 93.7923 234.733 93.7581C233.574 93.1543 232.325 92.5244 230.984 91.9012C230.937 91.8795 230.797 91.8128 230.749 91.7919C229.485 91.2298 228.221 90.7048 226.975 90.2159C226.899 90.1864 226.673 90.0964 226.597 90.0688C225.355 89.6175 224.096 89.187 222.801 88.7774C222.731 88.7554 222.521 88.6876 222.45 88.6672C221.163 88.292 219.885 87.9528 218.636 87.645C218.58 87.6313 218.412 87.5883 218.355 87.5756C216.908 87.2448 215.61 87.0044 214.471 86.8001C214.384 86.7845 214.121 86.7361 214.033 86.7229C212.691 86.5186 211.438 86.3661 210.285 86.236C210.168 86.2229 209.816 86.183 209.698 86.1742C208.556 86.0882 207.313 86.003 205.964 85.9505C205.903 85.9483 205.722 85.9399 205.662 85.9388C204.326 85.9123 203.042 85.9255 201.804 85.962C201.74 85.964 201.549 85.9682 201.485 85.9714C200.268 86.0319 198.999 86.1177 197.67 86.2493C197.607 86.2557 197.419 86.273 197.356 86.2806C196.14 86.4264 194.926 86.5992 193.734 86.7938C193.666 86.8049 193.463 86.8367 193.396 86.8493C192.208 87.0693 191.021 87.3158 189.837 87.5896C189.729 87.6148 189.405 87.6897 189.298 87.7187C188.267 87.9966 187.176 88.3007 186.025 88.6504C185.955 88.6717 185.746 88.734 185.677 88.757C184.517 89.1382 183.374 89.5483 182.258 89.979C182.218 89.9947 182.095 90.0404 182.055 90.0567C181.217 90.3924 180.447 90.726 179.745 91.0402C179.416 91.1876 179.102 91.3308 178.803 91.4687C178.749 91.4935 178.586 91.5665 178.533 91.5923C177.344 92.1632 176.287 92.7271 175.35 93.2428C175.309 93.2655 175.185 93.3323 175.144 93.3557C174.094 93.9525 173.099 94.56 172.153 95.1656C172.087 95.2082 171.888 95.3343 171.822 95.3785C170.824 96.0529 169.947 96.6892 169.18 97.2527C169.099 97.3123 168.856 97.4899 168.777 97.552C167.964 98.1897 167.133 98.8622 166.282 99.5843C166.204 99.651 165.969 99.8501 165.893 99.9193C165.147 100.598 164.365 101.328 163.574 102.108C163.537 102.145 163.425 102.253 163.389 102.29C162.559 103.134 161.849 103.912 161.23 104.601C161.141 104.701 160.872 105.002 160.786 105.106C160.206 105.811 159.574 106.59 158.905 107.462C158.886 107.486 158.83 107.557 158.812 107.582C158.052 108.591 157.441 109.492 156.936 110.25C156.881 110.332 156.717 110.576 156.666 110.66C156.155 111.48 155.629 112.354 155.101 113.294C155.094 113.307 155.072 113.345 155.064 113.358C154.455 114.452 153.985 115.411 153.599 116.214C153.559 116.298 153.438 116.549 153.4 116.634C152.997 117.54 152.629 118.423 152.277 119.313C152.244 119.399 152.142 119.655 152.111 119.742C151.835 120.511 151.498 121.453 151.151 122.585C151.139 122.624 151.103 122.738 151.092 122.777C150.828 123.687 150.568 124.657 150.333 125.663C150.314 125.744 150.256 125.988 150.24 126.07C150.078 126.867 149.888 127.822 149.715 128.954C149.709 128.997 149.688 129.125 149.683 129.168C149.571 129.997 149.45 130.955 149.358 132.082C149.355 132.127 149.343 132.26 149.34 132.305C149.289 133.113 149.234 134.085 149.225 135.219C149.225 135.265 149.223 135.402 149.223 135.447C149.232 136.257 149.248 137.223 149.326 138.365C149.403 139.484 149.521 140.452 149.628 141.247C149.636 141.307 149.659 141.487 149.668 141.546C149.812 142.481 149.973 143.342 150.139 144.144C150.158 144.237 150.216 144.518 150.238 144.611C150.434 145.43 150.644 146.227 150.854 146.974C150.884 147.079 150.974 147.396 151.007 147.5C151.208 148.117 151.476 148.969 151.882 150.034C151.896 150.068 151.934 150.172 151.948 150.206C152.283 151.048 152.594 151.752 152.859 152.348C152.907 152.455 153.051 152.776 153.103 152.881C153.489 153.668 153.874 154.391 154.225 155.026C154.273 155.113 154.417 155.375 154.469 155.46C154.877 156.147 155.305 156.828 155.751 157.501C155.794 157.564 155.92 157.756 155.964 157.819C156.421 158.47 156.923 159.155 157.501 159.88C157.524 159.907 157.589 159.991 157.612 160.019C158.114 160.632 158.634 161.235 159.17 161.823C159.253 161.913 159.499 162.181 159.585 162.267C160.04 162.725 160.553 163.233 161.133 163.772C161.197 163.832 161.391 164.013 161.457 164.071C162.043 164.585 162.592 165.038 163.103 165.447C163.209 165.531 163.526 165.782 163.635 165.862C164.158 166.243 164.742 166.657 165.385 167.084C165.473 167.142 165.737 167.317 165.827 167.372C166.377 167.709 166.937 168.039 167.509 168.361Z" fill="black"/>
<path d="M167.509 168.361C170.941 170.279 175.017 170.752 178.829 169.7C182.641 168.646 185.876 166.153 187.835 162.745C189.794 159.338 190.321 155.288 189.314 151.464C188.307 147.64 185.847 144.355 182.463 142.354C182.463 142.354 182.463 142.354 182.463 142.354C182.226 142.211 181.987 142.061 181.745 141.903L182.188 142.191C182.03 142.078 181.83 141.928 181.577 141.733L182.11 142.148C181.854 141.932 181.647 141.748 181.495 141.604L181.82 141.903C181.656 141.739 181.446 141.523 181.187 141.248L181.602 141.692C181.437 141.499 181.277 141.3 181.121 141.096L181.231 141.235C181.14 141.109 181.006 140.917 180.848 140.676L181.061 140.994C180.905 140.742 180.752 140.482 180.604 140.215L180.848 140.649C180.657 140.282 180.517 139.994 180.409 139.754L180.653 140.287C180.456 139.816 180.311 139.45 180.225 139.209L180.29 139.381C180.274 139.32 180.181 139.026 180.025 138.495L180.178 139.021C180.066 138.58 179.974 138.184 179.894 137.804L179.994 138.271C179.917 137.845 179.861 137.472 179.824 137.169L179.865 137.468C179.811 136.98 179.789 136.662 179.787 136.49C179.783 136.314 179.781 135.958 179.789 135.447L179.788 135.676C179.798 135.461 179.824 135.086 179.872 134.55L179.854 134.773C179.884 134.521 179.943 134.107 180.03 133.567L179.997 133.781C180.047 133.518 180.139 133.088 180.273 132.505L180.18 132.912C180.285 132.514 180.41 132.091 180.561 131.618L180.502 131.81C180.597 131.533 180.764 131.087 181.002 130.473L180.835 130.902C181.049 130.4 181.272 129.902 181.492 129.441L181.293 129.861C181.588 129.281 181.817 128.864 181.968 128.617L181.931 128.681C182.183 128.261 182.476 127.797 182.807 127.295L182.537 127.705C182.936 127.136 183.244 126.719 183.461 126.453L183.368 126.573C183.705 126.157 184.114 125.675 184.586 125.129L184.142 125.634C184.649 125.096 185.076 124.658 185.424 124.325L185.239 124.507C185.668 124.106 186.138 123.687 186.659 123.236L186.27 123.571C186.75 123.184 187.275 122.78 187.835 122.363L187.432 122.662C188.097 122.197 188.659 121.815 189.13 121.516L188.8 121.729C189.371 121.384 189.914 121.074 190.429 120.799L190.222 120.912C190.893 120.564 191.457 120.288 191.92 120.083L191.65 120.206C191.893 120.102 192.122 120.004 192.337 119.914C192.797 119.722 193.195 119.564 193.537 119.438L193.334 119.516C193.99 119.282 194.633 119.071 195.276 118.878L194.927 118.985C195.62 118.793 196.385 118.598 197.215 118.396L196.675 118.525C197.402 118.377 198.136 118.243 198.877 118.126L198.538 118.181C199.315 118.074 200.074 117.986 200.836 117.914L200.523 117.946C201.203 117.896 201.949 117.863 202.747 117.843L202.429 117.853C203.244 117.849 204.014 117.863 204.731 117.896L204.429 117.884C205.163 117.932 205.999 118.007 206.935 118.101L206.347 118.039C207.299 118.169 208.148 118.297 208.899 118.432L208.461 118.355C209.437 118.553 210.251 118.732 210.897 118.899L210.617 118.83C211.485 119.067 212.316 119.311 213.122 119.568L212.771 119.457C213.578 119.735 214.406 120.041 215.235 120.366L214.858 120.219C215.696 120.572 216.501 120.931 217.283 121.303L217.049 121.194C217.767 121.55 218.547 121.965 219.4 122.437L219.075 122.258C219.856 122.715 220.627 123.191 221.404 123.694L221.078 123.484C221.853 124.013 222.636 124.57 223.417 125.149L223.105 124.919C223.869 125.514 224.583 126.096 225.239 126.664L225.024 126.481C225.765 127.142 226.482 127.808 227.163 128.47L226.886 128.202C227.565 128.895 228.229 129.603 228.876 130.326L228.688 130.119C229.295 130.822 229.928 131.595 230.588 132.429L230.357 132.139C230.954 132.931 231.538 133.744 232.122 134.595L231.874 134.235C232.464 135.143 233.036 136.059 233.592 136.983L233.373 136.621C233.856 137.475 234.352 138.409 234.872 139.422L234.689 139.066C235.12 139.964 235.563 140.948 236.024 142.012L235.865 141.645C236.246 142.59 236.619 143.587 236.986 144.632L236.892 144.37C237.222 145.362 237.536 146.393 237.832 147.448L237.707 147.004C238 148.164 238.26 149.267 238.482 150.324L238.425 150.063C238.621 151.078 238.801 152.18 238.976 153.366L238.92 152.989C239.059 154.115 239.168 155.207 239.243 156.265L239.223 156.023C239.289 157.171 239.33 158.334 239.346 159.499L239.34 159.138C239.331 160.315 239.297 161.456 239.233 162.563L239.245 162.325C239.165 163.442 239.051 164.601 238.908 165.806L238.948 165.456C238.78 166.666 238.586 167.873 238.367 169.078L238.449 168.624C238.181 169.912 237.911 171.115 237.628 172.228L237.731 171.818C237.376 173.091 237.02 174.293 236.651 175.432L236.762 175.084C236.342 176.297 235.912 177.459 235.469 178.566L235.586 178.269C235.099 179.423 234.577 180.589 234.018 181.778L234.148 181.498C233.615 182.577 233.029 183.686 232.395 184.828L232.564 184.521C231.918 185.63 231.245 186.727 230.538 187.824L230.704 187.564C229.992 188.626 229.244 189.685 228.468 190.734L228.612 190.536C227.848 191.536 227.035 192.543 226.181 193.554L226.435 193.251C225.515 194.291 224.589 195.3 223.656 196.273L223.869 196.048C222.983 196.938 221.994 197.878 220.916 198.874L221.308 198.512C220.19 199.485 219.115 200.393 218.065 201.235L218.367 200.991C217.25 201.848 216.113 202.685 214.954 203.502L215.341 203.229C214.069 204.077 212.874 204.85 211.747 205.532L212.075 205.331C210.786 206.078 209.525 206.779 208.285 207.43L208.62 207.252C207.321 207.9 206.007 208.521 204.68 209.115L205.147 208.906C203.701 209.507 202.318 210.057 200.992 210.545L201.336 210.416C199.901 210.914 198.512 211.364 197.156 211.765L197.441 211.679C196.002 212.079 194.56 212.447 193.126 212.777L193.541 212.68C192.034 212.992 190.543 213.269 189.071 213.508L189.488 213.439C187.93 213.657 186.401 213.842 184.9 213.989L185.315 213.947C183.725 214.067 182.199 214.154 180.734 214.197L181.041 214.186C179.49 214.207 177.94 214.194 176.39 214.146L176.792 214.157C175.221 214.075 173.648 213.959 172.081 213.809L172.379 213.836C170.868 213.666 169.326 213.451 167.755 213.198L168.144 213.259C166.563 212.97 164.991 212.648 163.434 212.294L163.813 212.378C162.231 211.983 160.654 211.555 159.082 211.093L159.499 211.215C157.927 210.713 156.362 210.178 154.803 209.612L155.213 209.76C153.733 209.181 152.195 208.536 150.599 207.838L150.999 208.012C149.483 207.306 148.006 206.579 146.569 205.826L146.878 205.986C145.393 205.174 143.935 204.336 142.509 203.474L142.837 203.67C141.395 202.759 139.995 201.831 138.625 200.875L138.911 201.072C137.531 200.072 136.173 199.04 134.835 197.977L135.163 198.237C133.828 197.128 132.503 195.979 131.181 194.792L131.541 195.114C130.265 193.908 129.016 192.677 127.793 191.42L128.075 191.707C126.867 190.413 125.686 189.093 124.532 187.749L124.834 188.099C123.702 186.714 122.597 185.305 121.521 183.872L121.76 184.188C120.735 182.763 119.73 181.293 118.739 179.78L118.954 180.106C117.983 178.555 117.069 177.027 116.225 175.521L116.351 175.742C115.519 174.212 114.702 172.61 113.89 170.939L114.073 171.312C113.29 169.61 112.55 167.915 111.864 166.239L112.036 166.654C111.369 164.913 110.731 163.141 110.118 161.335L110.268 161.776C109.706 159.981 109.19 158.201 108.724 156.435L108.806 156.738C108.36 154.932 107.958 153.124 107.602 151.31L107.68 151.697C107.342 149.786 107.046 147.898 106.797 146.033L106.849 146.404C106.633 144.521 106.462 142.635 106.335 140.744L106.361 141.105C106.266 139.192 106.216 137.275 106.208 135.355L106.211 135.717C106.238 133.783 106.308 131.846 106.421 129.912L106.396 130.357C106.558 128.347 106.752 126.372 106.987 124.437L106.924 124.959C107.22 122.945 107.547 120.968 107.911 119.035L107.851 119.366C108.237 117.489 108.688 115.559 109.19 113.565L109.064 114.069C109.618 112.08 110.201 110.13 110.818 108.22L110.68 108.649C111.343 106.74 112.054 104.827 112.807 102.913L112.626 103.375C113.432 101.461 114.265 99.5882 115.128 97.76L114.942 98.1571C115.886 96.2601 116.842 94.4242 117.814 92.6611L117.608 93.0377C118.626 91.2795 119.706 89.5126 120.842 87.7319L120.658 88.0234C121.745 86.3819 122.949 84.6723 124.247 82.8783L123.949 83.2912C125.203 81.6474 126.511 80.0139 127.868 78.3909L127.625 78.6844C129.021 77.073 130.425 75.5216 131.841 74.0366L131.585 74.3081C133.098 72.7747 134.625 71.2905 136.174 69.8515L135.862 70.1437C137.451 68.7258 139.088 67.3311 140.766 65.9596L140.44 66.228C142.13 64.9015 143.852 63.6125 145.605 62.3614L145.311 62.5733C147.086 61.3506 148.894 60.1669 150.738 59.0172L150.373 59.2462C152.255 58.1245 154.169 57.0391 156.105 55.9949L155.694 56.2178C157.67 55.2068 159.663 54.2399 161.682 53.3123L161.335 53.4739C163.311 52.609 165.369 51.77 167.501 50.9447L167.042 51.1234C169.16 50.3587 171.284 49.6425 173.418 48.9749L173.005 49.1059C175.165 48.4769 177.352 47.892 179.558 47.3503L179.136 47.4554C181.355 46.9569 183.577 46.5083 185.789 46.1147L185.362 46.1924C187.585 45.8421 189.879 45.5348 192.237 45.2568L191.631 45.3278C194.017 45.1125 196.328 44.9431 198.556 44.8386L198.213 44.8569C200.452 44.7864 202.786 44.7723 205.201 44.7948L204.611 44.7893C206.988 44.8747 209.332 45.0045 211.652 45.1848L211.232 45.154C213.504 45.374 215.855 45.6611 218.285 45.9949L217.707 45.9156C220.082 46.3053 222.425 46.7365 224.739 47.2147L224.238 47.1125C226.612 47.6581 228.945 48.2404 231.233 48.8655L230.743 48.7331C233.069 49.4239 235.367 50.1567 237.646 50.9361L237.145 50.7659C239.405 51.5979 241.666 52.4861 243.922 53.4238L243.535 53.265C245.721 54.2219 247.902 55.2397 250.087 56.3162L249.685 56.12C251.819 57.2242 253.959 58.3966 256.11 59.6294L255.661 59.3738C257.778 60.6511 259.88 61.9794 261.97 63.3565L261.526 63.0656C263.556 64.4712 265.566 65.9284 267.551 67.4303L267.219 67.1815C269.127 68.6802 271.027 70.2521 272.927 71.889L272.565 71.5796C274.418 73.2442 276.25 74.9643 278.06 76.7334L277.723 76.4062C279.481 78.1959 281.202 80.0261 282.877 81.8906L282.568 81.549C284.22 83.4609 285.83 85.41 287.402 87.3994L287.114 87.0374C288.652 89.0632 290.144 91.1227 291.59 93.2145L291.328 92.8384C292.743 94.9713 294.121 97.1488 295.461 99.3646L295.19 98.9179C296.476 101.154 297.716 103.421 298.907 105.716L298.67 105.261C299.84 107.635 300.935 109.97 301.938 112.267L301.789 111.933C302.792 114.325 303.741 116.741 304.636 119.178L304.473 118.738C305.333 121.229 306.137 123.727 306.883 126.238L306.734 125.743C307.435 128.295 308.082 130.862 308.674 133.442L308.554 132.923C309.109 135.601 309.6 138.205 310.006 140.737L309.936 140.314C310.319 142.984 310.644 145.635 310.905 148.265L310.853 147.765C311.062 150.418 311.214 153.133 311.323 155.904L311.297 155.247C311.334 158.04 311.323 160.777 311.251 163.462L311.265 162.893C311.129 165.643 310.941 168.364 310.694 171.059L310.737 170.568C310.435 173.274 310.071 175.999 309.65 178.733L309.736 178.165C309.257 180.869 308.715 183.582 308.118 186.289L308.222 185.807C307.576 188.487 306.872 191.146 306.111 193.773L306.246 193.301C305.425 195.945 304.539 198.59 303.595 201.231L303.756 200.774C302.78 203.349 301.735 205.915 300.626 208.481L300.839 207.984C299.649 210.586 298.418 213.149 297.144 215.664L297.421 215.116C296.069 217.636 294.672 220.12 293.23 222.564L293.503 222.098C292.017 224.5 290.476 226.87 288.876 229.218L289.164 228.792C287.5 231.133 285.786 233.442 284.024 235.718L284.369 235.27C282.576 237.485 280.712 239.683 278.791 241.862L279.166 241.434C277.193 243.577 275.184 245.672 273.144 247.709L273.587 247.266C271.459 249.293 269.304 251.267 267.122 253.181L267.462 252.88C265.293 254.717 263.031 256.537 260.686 258.352L261.142 257.997C258.78 259.743 256.378 261.441 253.939 263.09L254.418 262.765C251.908 264.384 249.403 265.931 246.903 267.393L247.282 267.169C244.764 268.586 242.164 269.965 239.496 271.312L239.944 271.084C237.279 272.367 234.576 273.594 231.832 274.771L232.422 274.517C229.595 275.651 226.768 276.723 223.933 277.732L224.481 277.535C221.597 278.492 218.715 279.385 215.838 280.208L216.42 280.04C213.441 280.821 210.497 281.534 207.589 282.164L208.081 282.055C205.105 282.644 202.127 283.165 199.157 283.614L199.639 283.539C196.666 283.934 193.64 284.264 190.578 284.535L191.148 284.483C188.065 284.691 184.977 284.837 181.886 284.92L182.526 284.902C179.422 284.914 176.311 284.863 173.208 284.75L173.845 284.772C170.719 284.586 167.623 284.34 164.567 284.026L165.121 284.081C162.005 283.7 158.919 283.257 155.855 282.749L156.425 282.842C153.367 282.27 150.297 281.626 147.22 280.915L147.863 281.062C144.725 280.262 141.686 279.429 138.755 278.545L139.24 278.689C136.251 277.73 133.27 276.7 130.308 275.605L130.897 275.821C127.874 274.629 124.927 273.405 122.064 272.135L122.621 272.38C119.712 271.016 116.837 269.596 114.004 268.123L114.605 268.434C111.746 266.862 108.938 265.247 106.182 263.586L106.734 263.916C103.966 262.163 101.292 260.397 98.7247 258.604L99.1609 258.906C96.5158 256.988 93.9268 255.031 91.3959 253.03L91.9344 253.454C90.9634 252.649 90.0025 251.841 89.0519 251.031C87.4949 249.703 85.9656 248.366 84.4644 247.018L84.9684 247.469C82.5893 245.232 80.2388 242.926 77.9207 240.563L78.3959 241.046C76.0961 238.592 73.8903 236.152 71.7915 233.714L72.1993 234.184C70.0726 231.608 68.0318 229.034 66.0902 226.458L66.3905 226.852C64.4602 224.2 62.592 221.506 60.787 218.771L61.0698 219.194C59.3195 216.44 57.6066 213.597 55.9242 210.678C51.9418 203.79 45.3986 198.802 37.6863 196.841C29.9767 194.879 21.7296 196.105 14.8072 200.219C7.88468 204.334 2.86764 210.994 0.907602 218.704C-1.05521 226.415 0.199652 234.547 4.34826 241.337C4.34826 241.337 4.34826 241.337 4.34826 241.337C6.49905 244.867 8.74273 248.399 11.1026 251.921C11.1595 252.005 11.3272 252.261 11.3855 252.344C13.7797 255.788 16.253 259.176 18.802 262.503C18.8623 262.582 19.0406 262.82 19.1023 262.897C21.7149 266.193 24.3733 269.379 27.0532 272.471C27.1349 272.565 27.3773 272.849 27.461 272.941C30.2677 276.046 33.1033 279.029 35.9366 281.909C36.0317 282.005 36.3145 282.297 36.4118 282.392C39.3255 285.221 42.3057 288.007 45.3641 290.746C45.4649 290.836 45.7651 291.109 45.868 291.197C47.7969 292.846 49.7374 294.46 51.6847 296.041C52.8736 297.006 54.0651 297.96 55.2581 298.901C55.3658 298.986 55.6868 299.243 55.7965 299.325C59.0532 301.774 62.3488 304.141 65.6715 306.429C65.7589 306.489 66.0192 306.672 66.1077 306.73C69.5543 309.014 72.9986 311.167 76.4187 313.218C76.5291 313.285 76.8584 313.486 76.9703 313.549C80.4629 315.541 83.9789 317.449 87.5077 319.281C87.628 319.343 87.9872 319.533 88.1089 319.592C91.7036 321.352 95.3251 323.032 98.971 324.635C99.0825 324.684 99.4155 324.833 99.528 324.88C103.26 326.428 106.974 327.863 110.656 329.213C110.774 329.257 111.126 329.389 111.245 329.429C115 330.714 118.787 331.921 122.613 333.046C122.71 333.075 123 333.163 123.097 333.19C126.991 334.261 130.826 335.208 134.59 336.073C134.718 336.102 135.103 336.193 135.232 336.22C139.06 337.006 142.924 337.721 146.827 338.353C146.941 338.371 147.283 338.43 147.397 338.446C151.286 338.994 155.176 339.454 159.051 339.834C159.162 339.844 159.494 339.88 159.605 339.888C163.524 340.194 167.418 340.408 171.288 340.543C171.415 340.548 171.797 340.564 171.925 340.565C175.78 340.612 179.631 340.582 183.487 340.473C183.615 340.47 183.999 340.462 184.127 340.455C187.963 340.259 191.797 339.985 195.624 339.632C195.738 339.622 196.081 339.593 196.195 339.58C199.989 339.151 203.807 338.643 207.653 338.036C207.75 338.021 208.039 337.978 208.135 337.961C211.94 337.29 215.71 336.535 219.451 335.7C219.549 335.678 219.845 335.615 219.943 335.591C223.692 334.682 227.367 333.695 230.973 332.655C231.089 332.621 231.439 332.523 231.554 332.487C235.181 331.355 238.76 330.148 242.291 328.88C242.401 328.841 242.731 328.725 242.84 328.683C246.347 327.339 249.813 325.926 253.231 324.458C253.349 324.407 253.704 324.258 253.82 324.204C257.225 322.646 260.611 321.009 263.968 319.291C264.058 319.245 264.328 319.11 264.416 319.062C267.684 317.312 270.959 315.474 274.23 313.526C274.306 313.481 274.534 313.348 274.609 313.302C277.809 311.324 280.92 309.294 283.955 307.23C284.05 307.165 284.339 306.972 284.433 306.905C287.436 304.767 290.396 302.564 293.31 300.298C293.402 300.227 293.677 300.016 293.767 299.943C296.583 297.652 299.406 295.27 302.21 292.775C302.278 292.715 302.483 292.536 302.55 292.474C305.241 289.995 307.865 287.471 310.426 284.909C310.514 284.821 310.782 284.557 310.868 284.466C313.381 281.831 315.824 279.155 318.206 276.441C318.281 276.355 318.508 276.1 318.581 276.013C320.889 273.264 323.159 270.452 325.383 267.565C325.452 267.475 325.661 267.208 325.728 267.117C327.853 264.231 329.921 261.299 331.928 258.323C331.986 258.238 332.161 257.984 332.217 257.897C334.162 254.887 336.05 251.824 337.869 248.717C337.924 248.624 338.09 248.346 338.142 248.251C339.875 245.145 341.537 242.013 343.132 238.859C343.187 238.75 343.356 238.422 343.408 238.311C344.931 235.114 346.376 231.907 347.753 228.691C347.796 228.591 347.926 228.294 347.967 228.193C349.289 224.919 350.551 221.592 351.736 218.221C351.768 218.13 351.867 217.856 351.897 217.764C352.991 214.453 354.024 211.104 354.987 207.713C355.014 207.619 355.097 207.337 355.121 207.242C356.018 203.838 356.832 200.427 357.57 197.008C357.591 196.911 357.656 196.622 357.674 196.526C358.336 193.137 358.932 189.729 359.456 186.29C359.473 186.176 359.528 185.836 359.542 185.722C359.98 182.325 360.355 178.903 360.656 175.446C360.664 175.348 360.692 175.054 360.699 174.956C360.93 171.513 361.083 168.085 361.168 164.681C361.17 164.568 361.182 164.227 361.182 164.113C361.19 160.671 361.119 157.28 360.995 153.948C360.99 153.816 360.978 153.422 360.969 153.291C360.759 149.981 360.491 146.62 360.139 143.21C360.129 143.11 360.1 142.81 360.088 142.71C359.669 139.323 359.174 135.973 358.617 132.661C358.602 132.577 358.562 132.323 358.546 132.238C357.914 128.836 357.204 125.535 356.459 122.332C356.434 122.228 356.365 121.916 356.338 121.813C355.513 118.582 354.619 115.367 353.658 112.172C353.628 112.073 353.541 111.776 353.509 111.677C352.48 108.5 351.381 105.351 350.22 102.237C350.187 102.149 350.091 101.884 350.057 101.797C348.835 98.7047 347.544 95.6383 346.183 92.6024C346.153 92.5356 346.066 92.3342 346.035 92.2679C344.606 89.204 343.125 86.2441 341.623 83.3735C341.575 83.2827 341.435 83.0089 341.385 82.919C339.807 80.0528 338.166 77.2174 336.463 74.417C336.408 74.3277 336.248 74.0584 336.191 73.9703C334.453 71.2478 332.652 68.5485 330.784 65.8765C330.732 65.8014 330.576 65.5745 330.522 65.5004C328.612 62.8765 326.643 60.2944 324.619 57.7575C324.561 57.6852 324.389 57.4667 324.33 57.3955C322.272 54.9173 320.155 52.4775 317.985 50.0859C317.922 50.0177 317.738 49.8113 317.675 49.7443C315.47 47.4077 313.215 45.1233 310.91 42.8887C310.842 42.8234 310.642 42.6255 310.573 42.5615C308.263 40.4107 305.896 38.2927 303.467 36.2154C303.395 36.1536 303.18 35.9662 303.106 35.9059C300.677 33.9129 298.176 31.9424 295.593 30.0134C295.527 29.9638 295.329 29.813 295.261 29.7646C292.721 27.9376 290.138 26.1584 287.506 24.4293C287.417 24.3712 287.153 24.1945 287.063 24.1384C284.444 22.5026 281.78 20.9068 279.071 19.3611C278.981 19.3101 278.714 19.1545 278.623 19.1055C275.922 17.6429 273.158 16.2129 270.328 14.8349C270.247 14.7958 270.007 14.6762 269.925 14.6387C267.128 13.3436 264.276 12.0951 261.377 10.9099C261.3 10.8784 261.069 10.7812 260.991 10.7511C258.153 9.65157 255.281 8.60182 252.367 7.60902C252.267 7.57502 251.967 7.47052 251.866 7.43884C248.965 6.5246 246.048 5.67224 243.129 4.88182C243.031 4.85542 242.738 4.77364 242.639 4.74942C239.681 4.01802 236.738 3.36048 233.814 2.76242C233.714 2.74205 233.414 2.67835 233.314 2.66024C230.34 2.12086 227.374 1.65014 224.425 1.23935C224.31 1.22338 223.963 1.17303 223.847 1.16005C220.968 0.835253 218 0.541918 214.94 0.320883C214.856 0.314955 214.605 0.2945 214.521 0.29014C211.533 0.131035 208.562 0.0400143 205.621 0.00562477C205.503 0.00437737 205.149 -0.00177193 205.031 8.96454e-05C202.164 0.0427856 199.217 0.127996 196.18 0.298031C196.111 0.301985 195.905 0.311316 195.837 0.316324C192.822 0.53207 189.899 0.822012 187.061 1.14713C186.94 1.16113 186.576 1.20084 186.456 1.21816C183.647 1.61848 180.784 2.07011 177.87 2.60248C177.785 2.61822 177.528 2.66281 177.443 2.68021C174.565 3.26492 171.719 3.91292 168.896 4.6195C168.812 4.64071 168.559 4.70178 168.475 4.72466C165.699 5.47834 162.93 6.29125 160.167 7.16906C160.085 7.19543 159.836 7.272 159.754 7.29999C157.026 8.2268 154.322 9.21263 151.651 10.2515C151.559 10.2873 151.283 10.3923 151.192 10.4302C148.61 11.5023 145.987 12.6433 143.338 13.881C143.268 13.9136 143.059 14.0089 142.99 14.0426C140.449 15.2857 137.927 16.5857 135.438 17.9371C135.356 17.9818 135.109 18.1135 135.028 18.16C132.583 19.5561 130.169 21.0037 127.779 22.5087C127.706 22.5547 127.487 22.6903 127.415 22.7377C125.07 24.2809 122.748 25.883 120.461 27.5417C120.403 27.5842 120.226 27.7099 120.168 27.7535C117.932 29.4333 115.733 31.1649 113.572 32.9469C113.507 33.0008 113.311 33.1602 113.247 33.2153C111.163 35.005 109.102 36.8481 107.071 38.7512C107.008 38.8098 106.82 38.9836 106.758 39.0434C104.779 40.974 102.854 42.9406 100.987 44.9269C100.936 44.9813 100.781 45.143 100.731 45.1983C98.8524 47.2677 97.0554 49.3569 95.3279 51.4505C95.2795 51.5094 95.1323 51.6843 95.0849 51.744C93.4055 53.856 91.7552 56.0202 90.1436 58.2438C90.0839 58.3264 89.903 58.5726 89.8454 58.6567C88.3909 60.7726 86.89 63.0084 85.3944 65.3915C85.3579 65.4499 85.2462 65.624 85.2107 65.683C83.8484 67.9384 82.5065 70.2548 81.204 72.6372C81.1629 72.7126 81.0375 72.9376 80.998 73.0138C79.7516 75.4097 78.59 77.7869 77.4902 80.1378C77.4531 80.2173 77.3397 80.4547 77.3043 80.535C76.228 82.966 75.2188 85.3973 74.2667 87.8196C74.2305 87.912 74.1198 88.1883 74.0858 88.2815C73.198 90.7098 72.3511 93.1693 71.552 95.6657C71.5246 95.7517 71.4401 96.0088 71.4146 96.0954C70.6735 98.598 69.9953 101.091 69.3689 103.566C69.3436 103.667 69.2652 103.969 69.2424 104.07C68.6863 106.529 68.1544 109.07 67.6818 111.689C67.6699 111.755 67.6321 111.954 67.6213 112.02C67.2059 114.565 66.8535 117.084 66.5486 119.576C66.536 119.68 66.4958 119.993 66.4859 120.098C66.2399 122.648 66.055 125.167 65.916 127.658C65.9111 127.747 65.8941 128.014 65.8912 128.103C65.8049 130.639 65.7747 133.177 65.8015 135.717C65.8023 135.79 65.8025 136.007 65.8047 136.08C65.8766 138.603 66.0051 141.127 66.1916 143.65C66.197 143.722 66.211 143.939 66.2178 144.011C66.4482 146.516 66.7372 149.019 67.0839 151.511C67.0944 151.585 67.1233 151.808 67.1351 151.882C67.5259 154.352 67.9697 156.784 68.4528 159.178C68.4685 159.255 68.5133 159.488 68.5306 159.565C69.0718 162.001 69.6721 164.421 70.3264 166.816C70.343 166.877 70.3907 167.059 70.4083 167.12C71.0996 169.503 71.8424 171.842 72.624 174.139C72.6541 174.227 72.7423 174.493 72.7745 174.58C73.5921 176.809 74.4574 179.046 75.3769 181.281C75.4112 181.364 75.512 181.614 75.5482 181.696C76.5241 183.924 77.5371 186.094 78.5793 188.223C78.616 188.297 78.7238 188.522 78.762 188.596C79.8417 190.688 80.988 192.813 82.2211 194.952C82.2466 194.997 82.3214 195.13 82.3476 195.174C83.5998 197.282 84.8832 199.31 86.1783 201.269C86.2214 201.334 86.3488 201.531 86.3932 201.595C87.7161 203.512 89.0936 205.427 90.5323 207.327C90.5802 207.39 90.722 207.58 90.7712 207.642C92.2092 209.462 93.6853 211.254 95.1984 213.016C95.2587 213.086 95.438 213.297 95.5 213.366C97.044 215.079 98.6238 216.76 100.238 218.408C100.294 218.465 100.462 218.639 100.519 218.695C102.157 220.299 103.829 221.868 105.532 223.401C105.604 223.465 105.818 223.66 105.891 223.723C107.587 225.174 109.326 226.609 111.109 228.018C111.175 228.07 111.371 228.227 111.438 228.278C113.247 229.645 115.089 230.974 116.962 232.263C117.019 232.302 117.189 232.422 117.247 232.46C119.141 233.713 121.058 234.916 122.976 236.065C123.041 236.104 123.237 236.223 123.303 236.261C125.249 237.373 127.206 238.434 129.174 239.449C129.236 239.481 129.421 239.578 129.484 239.609C131.506 240.606 133.533 241.541 135.553 242.423C135.633 242.457 135.873 242.564 135.953 242.597C137.897 243.391 139.922 244.187 142.039 244.955C142.121 244.985 142.367 245.076 142.45 245.103C144.487 245.788 146.542 246.435 148.613 247.04C148.697 247.065 148.946 247.139 149.03 247.162C151.099 247.715 153.183 248.227 155.279 248.696C155.355 248.713 155.582 248.766 155.658 248.781C157.759 249.206 159.862 249.583 161.968 249.916C162.046 249.928 162.28 249.966 162.358 249.977C164.456 250.262 166.594 250.508 168.773 250.699C168.833 250.704 169.012 250.722 169.071 250.726C171.172 250.875 173.274 250.979 175.381 251.038C175.461 251.04 175.702 251.048 175.782 251.049C177.873 251.061 179.963 251.028 182.051 250.949C182.113 250.946 182.297 250.941 182.358 250.938C184.499 250.821 186.573 250.649 188.578 250.448C188.66 250.44 188.909 250.417 188.992 250.406C191.041 250.154 193.052 249.86 195.025 249.535C195.108 249.522 195.358 249.482 195.441 249.467C197.458 249.088 199.439 248.667 201.392 248.214C201.474 248.195 201.724 248.139 201.806 248.118C203.779 247.611 205.724 247.064 207.651 246.476C207.708 246.459 207.88 246.408 207.937 246.39C209.9 245.757 211.802 245.085 213.636 244.399C213.705 244.373 213.912 244.297 213.98 244.27C215.869 243.521 217.668 242.75 219.385 241.989C219.479 241.947 219.76 241.824 219.853 241.779C221.616 240.938 223.363 240.059 225.093 239.143C225.16 239.107 225.362 239.002 225.428 238.965C227.15 238.006 228.812 237.026 230.417 236.044C230.483 236.003 230.68 235.885 230.745 235.843C232.449 234.751 234.03 233.667 235.512 232.626C235.589 232.572 235.822 232.41 235.898 232.353C237.42 231.224 238.924 230.061 240.406 228.864C240.466 228.815 240.648 228.67 240.707 228.62C242.182 227.375 243.58 226.132 244.904 224.923C244.983 224.85 245.22 224.635 245.297 224.561C246.568 223.327 247.9 222.007 249.263 220.567C249.306 220.522 249.435 220.388 249.476 220.342C250.733 218.966 251.944 217.578 253.117 216.184C253.168 216.124 253.322 215.943 253.372 215.881C254.531 214.44 255.677 212.949 256.8 211.399C256.829 211.36 256.917 211.242 256.945 211.201C258.002 209.698 259.03 208.165 260.029 206.591C260.061 206.539 260.162 206.384 260.194 206.331C261.134 204.79 262.049 203.214 262.928 201.614C262.962 201.553 263.065 201.369 263.097 201.307C263.92 199.736 264.736 198.1 265.525 196.397C265.55 196.341 265.63 196.173 265.654 196.117C266.351 194.537 267.034 192.911 267.687 191.246C267.71 191.187 267.782 191.009 267.804 190.949C268.436 189.248 269.006 187.573 269.531 185.93C269.553 185.861 269.621 185.653 269.641 185.583C270.149 183.873 270.596 182.205 271.002 180.597C271.022 180.515 271.086 180.27 271.105 180.187C271.501 178.441 271.83 176.767 272.123 175.171C272.14 175.08 272.191 174.808 272.205 174.717C272.465 173.051 272.692 171.377 272.884 169.698C272.892 169.629 272.918 169.419 272.924 169.349C273.079 167.693 273.207 165.985 273.288 164.23C273.29 164.182 273.298 164.04 273.299 163.992C273.355 162.261 273.362 160.56 273.333 158.897C273.331 158.825 273.329 158.608 273.326 158.535C273.263 156.891 273.165 155.247 273.029 153.591C273.025 153.543 273.015 153.398 273.01 153.35C272.846 151.64 272.635 149.972 272.393 148.346C272.381 148.271 272.349 148.044 272.336 147.969C272.073 146.446 271.773 144.844 271.407 143.172C271.396 143.119 271.363 142.962 271.351 142.91C270.975 141.321 270.573 139.792 270.165 138.331C270.141 138.242 270.067 137.975 270.04 137.887C269.575 136.377 269.073 134.859 268.52 133.325C268.501 133.273 268.446 133.115 268.426 133.063C267.881 131.627 267.293 130.16 266.648 128.67C266.616 128.597 266.522 128.376 266.488 128.303C265.879 126.987 265.219 125.605 264.484 124.169C264.447 124.097 264.339 123.883 264.3 123.813C263.609 122.542 262.863 121.211 262.039 119.834C261.995 119.762 261.866 119.543 261.82 119.471C261.034 118.232 260.226 117.008 259.398 115.8C259.349 115.728 259.202 115.51 259.15 115.44C258.285 114.245 257.378 113.043 256.435 111.856C256.389 111.798 256.252 111.623 256.205 111.566C255.296 110.475 254.33 109.347 253.284 108.196C253.247 108.155 253.135 108.03 253.097 107.989C252.085 106.913 251.047 105.86 249.987 104.833C249.931 104.779 249.766 104.617 249.71 104.565C248.639 103.575 247.566 102.629 246.488 101.714C246.445 101.678 246.317 101.567 246.274 101.531C245.103 100.57 243.945 99.6773 242.807 98.8356C242.745 98.7896 242.559 98.6503 242.495 98.6058C241.369 97.8139 240.219 97.0358 239.034 96.2705C238.969 96.2287 238.775 96.1016 238.709 96.0614C237.519 95.3327 236.297 94.6199 235.058 93.9368C234.993 93.9011 234.799 93.7923 234.733 93.7581C233.574 93.1543 232.325 92.5244 230.984 91.9012C230.937 91.8795 230.797 91.8128 230.749 91.7919C229.485 91.2298 228.221 90.7048 226.975 90.2159C226.899 90.1864 226.673 90.0964 226.597 90.0688C225.355 89.6175 224.096 89.187 222.801 88.7774C222.731 88.7554 222.521 88.6876 222.45 88.6672C221.163 88.292 219.885 87.9528 218.636 87.645C218.58 87.6313 218.412 87.5883 218.355 87.5756C216.908 87.2448 215.61 87.0044 214.471 86.8001C214.384 86.7845 214.121 86.7361 214.033 86.7229C212.691 86.5186 211.438 86.3661 210.285 86.236C210.168 86.2229 209.816 86.183 209.698 86.1742C208.556 86.0882 207.313 86.003 205.964 85.9505C205.903 85.9483 205.722 85.9399 205.662 85.9388C204.326 85.9123 203.042 85.9255 201.804 85.962C201.74 85.964 201.549 85.9682 201.485 85.9714C200.268 86.0319 198.999 86.1177 197.67 86.2493C197.607 86.2557 197.419 86.273 197.356 86.2806C196.14 86.4264 194.926 86.5992 193.734 86.7938C193.666 86.8049 193.463 86.8367 193.396 86.8493C192.208 87.0693 191.021 87.3158 189.837 87.5896C189.729 87.6148 189.405 87.6897 189.298 87.7187C188.267 87.9966 187.176 88.3007 186.025 88.6504C185.955 88.6717 185.746 88.734 185.677 88.757C184.517 89.1382 183.374 89.5483 182.258 89.979C182.218 89.9947 182.095 90.0404 182.055 90.0567C181.217 90.3924 180.447 90.726 179.745 91.0402C179.416 91.1876 179.102 91.3308 178.803 91.4687C178.749 91.4935 178.586 91.5665 178.533 91.5923C177.344 92.1632 176.287 92.7271 175.35 93.2428C175.309 93.2655 175.185 93.3323 175.144 93.3557C174.094 93.9525 173.099 94.56 172.153 95.1656C172.087 95.2082 171.888 95.3343 171.822 95.3785C170.824 96.0529 169.947 96.6892 169.18 97.2527C169.099 97.3123 168.856 97.4899 168.777 97.552C167.964 98.1897 167.133 98.8622 166.282 99.5843C166.204 99.651 165.969 99.8501 165.893 99.9193C165.147 100.598 164.365 101.328 163.574 102.108C163.537 102.145 163.425 102.253 163.389 102.29C162.559 103.134 161.849 103.912 161.23 104.601C161.141 104.701 160.872 105.002 160.786 105.106C160.206 105.811 159.574 106.59 158.905 107.462C158.886 107.486 158.83 107.557 158.812 107.582C158.052 108.591 157.441 109.492 156.936 110.25C156.881 110.332 156.717 110.576 156.666 110.66C156.155 111.48 155.629 112.354 155.101 113.294C155.094 113.307 155.072 113.345 155.064 113.358C154.455 114.452 153.985 115.411 153.599 116.214C153.559 116.298 153.438 116.549 153.4 116.634C152.997 117.54 152.629 118.423 152.277 119.313C152.244 119.399 152.142 119.655 152.111 119.742C151.835 120.511 151.498 121.453 151.151 122.585C151.139 122.624 151.103 122.738 151.092 122.777C150.828 123.687 150.568 124.657 150.333 125.663C150.314 125.744 150.256 125.988 150.24 126.07C150.078 126.867 149.888 127.822 149.715 128.954C149.709 128.997 149.688 129.125 149.683 129.168C149.571 129.997 149.45 130.955 149.358 132.082C149.355 132.127 149.343 132.26 149.34 132.305C149.289 133.113 149.234 134.085 149.225 135.219C149.225 135.265 149.223 135.402 149.223 135.447C149.232 136.257 149.248 137.223 149.326 138.365C149.403 139.484 149.521 140.452 149.628 141.247C149.636 141.307 149.659 141.487 149.668 141.546C149.812 142.481 149.973 143.342 150.139 144.144C150.158 144.237 150.216 144.518 150.238 144.611C150.434 145.43 150.644 146.227 150.854 146.974C150.884 147.079 150.974 147.396 151.007 147.5C151.208 148.117 151.476 148.969 151.882 150.034C151.896 150.068 151.934 150.172 151.948 150.206C152.283 151.048 152.594 151.752 152.859 152.348C152.907 152.455 153.051 152.776 153.103 152.881C153.489 153.668 153.874 154.391 154.225 155.026C154.273 155.113 154.417 155.375 154.469 155.46C154.877 156.147 155.305 156.828 155.751 157.501C155.794 157.564 155.92 157.756 155.964 157.819C156.421 158.47 156.923 159.155 157.501 159.88C157.524 159.907 157.589 159.991 157.612 160.019C158.114 160.632 158.634 161.235 159.17 161.823C159.253 161.913 159.499 162.181 159.585 162.267C160.04 162.725 160.553 163.233 161.133 163.772C161.197 163.832 161.391 164.013 161.457 164.071C162.043 164.585 162.592 165.038 163.103 165.447C163.209 165.531 163.526 165.782 163.635 165.862C164.158 166.243 164.742 166.657 165.385 167.084C165.473 167.142 165.737 167.317 165.827 167.372C166.377 167.709 166.937 168.039 167.509 168.361Z" fill="black"/>
<defs>
<radialGradient id="paint0_radial_73_1744" cx="0" cy="0" r="1" gradientUnits="userSpaceOnUse" gradientTransform="translate(197.136 136.397) rotate(106.73) scale(361.292 380.916)">
<stop stop-color="#F200FF"/>
<stop offset="1" stop-color="#00FFFF"/>
</radialGradient>
</defs>
</svg>
